<svg width="300" height="138" viewBox="0 0 300 138" fill="none" xmlns="http://www.w3.org/2000/svg">
<g clip-path="url(#clip0_388:3355)">
<rect x="-4" width="302.693" height="136.362" rx="19.6744" fill="white"/>
<path d="M153.911 43.8617V66.8003H152.004C151.695 66.8003 151.489 66.7487 151.283 66.6456C151.076 66.5425 150.87 66.3879 150.716 66.1302L138.138 49.9443C138.19 50.2536 138.19 50.5629 138.19 50.8721C138.19 51.1814 138.19 51.4392 138.19 51.6969V66.7487H134.891V43.8101H136.849C137.004 43.8101 137.159 43.8101 137.262 43.8101C137.365 43.8101 137.468 43.8617 137.571 43.9132C137.674 43.9648 137.777 44.0163 137.829 44.1194C137.932 44.2225 137.983 44.3256 138.086 44.4287L150.716 60.6146C150.664 60.3053 150.664 59.9445 150.664 59.6352C150.664 59.3259 150.664 59.0166 150.664 58.7589V43.8101L153.911 43.8617Z" fill="#3C454A"/>
<path d="M156.85 52.8304C158.706 51.1293 160.871 50.253 163.396 50.253C164.324 50.253 165.149 50.4076 165.871 50.7169C166.592 51.0262 167.211 51.4386 167.726 52.0056C168.242 52.5726 168.603 53.1912 168.861 53.9644C169.118 54.7376 169.273 55.5624 169.273 56.4902V66.7997H167.726C167.417 66.7997 167.159 66.7482 166.953 66.6451C166.799 66.542 166.644 66.3358 166.541 66.0265L166.232 64.6863C165.819 65.0471 165.407 65.4079 164.994 65.6657C164.582 65.9749 164.17 66.1811 163.757 66.3873C163.345 66.5935 162.881 66.7482 162.366 66.8513C161.85 66.9543 161.335 67.0059 160.716 67.0059C160.046 67.0059 159.427 66.9028 158.86 66.7482C158.293 66.5935 157.778 66.2842 157.365 65.9234C156.953 65.5626 156.644 65.0986 156.386 64.5832C156.128 64.0161 156.025 63.3976 156.025 62.6759C156.025 62.0573 156.18 61.4388 156.541 60.8202C156.902 60.2016 157.417 59.6862 158.19 59.2222C158.963 58.7583 159.994 58.3459 161.231 58.0366C162.469 57.7274 164.015 57.5727 165.871 57.5212V56.4387C165.871 55.2531 165.613 54.3768 165.098 53.8098C164.582 53.2427 163.86 52.9335 162.881 52.9335C162.211 52.9335 161.695 53.0366 161.231 53.1912C160.768 53.3458 160.407 53.552 160.046 53.7067C159.737 53.9129 159.427 54.0675 159.17 54.2221C158.912 54.3768 158.654 54.4799 158.345 54.4799C158.087 54.4799 157.932 54.4283 157.726 54.2737C157.52 54.119 157.417 54.016 157.314 53.8098L156.85 52.8304ZM165.922 59.6862C164.685 59.7377 163.654 59.8408 162.829 59.9954C162.005 60.1501 161.335 60.3563 160.768 60.5625C160.252 60.8202 159.891 61.0779 159.634 61.4388C159.427 61.7481 159.273 62.1089 159.273 62.5213C159.273 62.8821 159.324 63.2429 159.479 63.5007C159.582 63.7584 159.788 64.0161 159.994 64.1708C160.201 64.3254 160.458 64.4801 160.768 64.5316C161.077 64.6347 161.386 64.6347 161.747 64.6347C162.623 64.6347 163.396 64.4801 164.067 64.1192C164.685 63.81 165.355 63.2945 165.922 62.6759V59.6862Z" fill="#3C454A"/>
<path d="M177.211 67.0582C175.871 67.0582 174.84 66.6974 174.118 65.9242C173.396 65.151 173.035 64.1201 173.035 62.7283V53.2951H171.231C171.025 53.2951 170.871 53.2436 170.716 53.0889C170.561 52.9858 170.51 52.7796 170.51 52.5219V51.1301L173.139 50.7693L173.912 46.0785C173.963 45.9238 174.066 45.7692 174.17 45.6661C174.273 45.563 174.479 45.5114 174.685 45.5114H176.438V50.8208H180.922V53.2951H176.438V62.5221C176.438 63.0891 176.592 63.553 176.85 63.8623C177.159 64.1716 177.52 64.3262 177.984 64.3262C178.242 64.3262 178.5 64.2747 178.654 64.2231C178.86 64.1716 179.015 64.0685 179.17 64.017C179.324 63.9139 179.427 63.8623 179.53 63.8108C179.634 63.7592 179.737 63.7077 179.84 63.7077C180.046 63.7077 180.201 63.8108 180.304 64.017L181.335 65.6665C180.819 66.1304 180.201 66.4912 179.479 66.749C178.706 66.9036 177.932 67.0582 177.211 67.0582Z" fill="#3C454A"/>
<path d="M196.489 50.5632V66.8006H194.428C193.964 66.8006 193.654 66.5945 193.551 66.1305L193.294 64.6357C192.933 64.9965 192.572 65.3058 192.211 65.6151C191.85 65.9243 191.438 66.1821 191.025 66.3883C190.613 66.5945 190.149 66.7491 189.685 66.9037C189.221 67.0584 188.706 67.0584 188.139 67.0584C187.262 67.0584 186.438 66.9037 185.768 66.5945C185.097 66.2852 184.53 65.8728 184.067 65.3573C183.603 64.7903 183.242 64.1717 183.036 63.3985C182.778 62.6253 182.675 61.8005 182.675 60.8727V50.5632H186.077V60.8727C186.077 61.9552 186.335 62.8315 186.85 63.3985C187.366 64.0171 188.139 64.3264 189.17 64.3264C189.943 64.3264 190.613 64.1717 191.283 63.8109C191.953 63.4501 192.572 62.9861 193.139 62.3676V50.5117L196.489 50.5632Z" fill="#3C454A"/>
<path d="M202.624 53.552C203.139 52.5211 203.758 51.6963 204.48 51.1293C205.201 50.5623 206.078 50.253 207.057 50.253C207.418 50.253 207.727 50.3045 208.036 50.3561C208.346 50.4592 208.603 50.5623 208.861 50.7169L208.603 53.2943C208.552 53.4489 208.5 53.6036 208.397 53.6551C208.294 53.7067 208.191 53.7582 208.036 53.7582C207.882 53.7582 207.624 53.7067 207.366 53.6551C207.057 53.6036 206.748 53.552 206.438 53.552C205.974 53.552 205.562 53.6036 205.15 53.7582C204.789 53.9129 204.48 54.119 204.17 54.3768C203.861 54.6345 203.603 54.9438 203.397 55.3562C203.191 55.717 202.985 56.1809 202.778 56.6449V66.7482H199.376V50.5107H201.387C201.748 50.5107 202.005 50.5623 202.16 50.7169C202.315 50.8716 202.418 51.0778 202.469 51.387L202.624 53.552Z" fill="#3C454A"/>
<path d="M212.005 58.9651C212.057 59.893 212.212 60.6662 212.418 61.3363C212.675 62.0064 212.985 62.5734 213.397 63.0373C213.809 63.5013 214.273 63.8106 214.84 64.0167C215.407 64.2229 216.026 64.326 216.748 64.326C217.418 64.326 217.985 64.2745 218.5 64.1198C218.964 63.9652 219.428 63.8106 219.789 63.6044C220.15 63.3982 220.459 63.2435 220.717 63.0889C220.975 62.9342 221.181 62.8827 221.439 62.8827C221.696 62.8827 221.902 62.9858 222.057 63.192L223.036 64.4291C222.624 64.893 222.16 65.3054 221.645 65.6147C221.129 65.924 220.614 66.2333 220.047 66.4395C219.48 66.6457 218.861 66.8003 218.294 66.9034C217.676 67.0065 217.109 67.058 216.542 67.058C215.407 67.058 214.377 66.8518 213.397 66.491C212.418 66.1302 211.593 65.5632 210.923 64.8415C210.201 64.1198 209.686 63.192 209.273 62.1095C208.861 61.027 208.655 59.7899 208.655 58.3465C208.655 57.2125 208.809 56.1815 209.17 55.2021C209.531 54.2227 210.047 53.398 210.717 52.6763C211.387 51.9547 212.212 51.3876 213.139 50.9753C214.067 50.5629 215.15 50.3567 216.387 50.3567C217.366 50.3567 218.294 50.5113 219.17 50.8206C219.995 51.1299 220.768 51.5938 221.387 52.2639C222.006 52.8825 222.469 53.6557 222.83 54.5836C223.191 55.5114 223.346 56.5424 223.346 57.6764C223.346 58.1919 223.294 58.5527 223.191 58.7589C223.088 58.9136 222.882 59.0166 222.573 59.0166H212.005V58.9651V58.9651ZM220.15 56.8517C220.15 56.2846 220.047 55.7692 219.892 55.2537C219.737 54.7382 219.48 54.3258 219.17 53.965C218.861 53.6042 218.449 53.2949 217.985 53.0887C217.521 52.8825 216.954 52.7794 216.335 52.7794C215.098 52.7794 214.119 53.1402 213.397 53.8619C212.675 54.5836 212.212 55.563 212.057 56.8517H220.15Z" fill="#3C454A"/>
<path d="M149.839 86.4398V88.3986C149.839 88.6048 149.788 88.7594 149.633 88.9141C149.53 89.0687 149.324 89.1202 149.066 89.1202H146.643V94.8935H143.653V89.1202H133.756C133.499 89.1202 133.292 89.0687 133.138 88.9141C132.983 88.7594 132.828 88.6048 132.777 88.3986L132.416 86.646L143.396 72.0065H146.592V86.4398H149.839ZM143.705 86.4398V78.0891C143.705 77.419 143.757 76.6973 143.86 75.8726L136.179 86.4398H143.705Z" fill="#3C454A"/>
<path d="M168.293 89.79C168.499 89.79 168.654 89.8931 168.809 90.0477L170.304 91.6457C169.376 92.7797 168.242 93.656 166.85 94.223C165.51 94.8416 163.86 95.1509 162.004 95.1509C160.303 95.1509 158.809 94.8416 157.468 94.2746C156.128 93.7076 154.942 92.8828 154.015 91.8519C153.035 90.8209 152.314 89.5838 151.798 88.1404C151.283 86.6971 151.025 85.1507 151.025 83.3981C151.025 81.697 151.283 80.099 151.85 78.6557C152.417 77.2124 153.19 75.9753 154.169 74.9443C155.149 73.9134 156.334 73.0886 157.726 72.5216C159.118 71.9546 160.613 71.6453 162.314 71.6453C163.963 71.6453 165.407 71.903 166.695 72.47C167.984 72.9855 169.066 73.7072 169.994 74.635L168.757 76.3876C168.654 76.4907 168.551 76.5938 168.448 76.6969C168.345 76.8 168.19 76.8 167.984 76.8C167.778 76.8 167.52 76.6969 167.262 76.4907C167.005 76.2845 166.644 76.0784 166.231 75.8206C165.819 75.5629 165.303 75.3567 164.633 75.1505C164.015 74.9443 163.19 74.8412 162.262 74.8412C161.18 74.8412 160.149 75.0474 159.272 75.4082C158.396 75.7691 157.571 76.3361 156.901 77.0578C156.231 77.7794 155.716 78.6557 155.355 79.7382C154.994 80.7692 154.788 82.0063 154.788 83.295C154.788 84.6352 154.994 85.8208 155.355 86.9033C155.716 87.9858 156.283 88.8621 156.953 89.5838C157.623 90.3054 158.396 90.8725 159.324 91.2333C160.2 91.5941 161.18 91.8003 162.262 91.8003C162.881 91.8003 163.448 91.7488 163.963 91.6972C164.479 91.6457 164.943 91.5426 165.355 91.3879C165.767 91.2333 166.18 91.0271 166.541 90.8209C166.901 90.6147 167.314 90.3054 167.675 89.9446C167.881 89.8931 168.087 89.79 168.293 89.79Z" fill="#3C454A"/>
<path d="M175.304 71.3371V94.8942H171.901V71.3371H175.304Z" fill="#3C454A"/>
<path d="M182.624 73.7598C182.624 74.0691 182.572 74.3784 182.417 74.6361C182.314 74.8938 182.108 75.1516 181.902 75.3578C181.696 75.5639 181.438 75.7186 181.18 75.8732C180.923 75.9763 180.613 76.0794 180.304 76.0794C179.995 76.0794 179.685 76.0279 179.428 75.8732C179.17 75.7701 178.912 75.5639 178.706 75.3578C178.5 75.1516 178.345 74.8938 178.242 74.6361C178.139 74.3784 178.036 74.0691 178.036 73.7598C178.036 73.4505 178.088 73.1412 178.242 72.8835C178.345 72.6257 178.551 72.368 178.706 72.1618C178.912 71.9556 179.118 71.801 179.428 71.6463C179.685 71.5433 179.995 71.4402 180.304 71.4402C180.613 71.4402 180.923 71.4917 181.18 71.6463C181.438 71.7494 181.696 71.9556 181.902 72.1618C182.108 72.368 182.263 72.6257 182.417 72.8835C182.572 73.1412 182.624 73.4505 182.624 73.7598ZM182.057 78.6568V94.8942H178.655V78.6568H182.057Z" fill="#3C454A"/>
<path d="M185.355 94.8933V78.6558H187.417C187.881 78.6558 188.19 78.862 188.293 79.3259L188.5 80.7177C188.809 80.3569 189.118 80.0476 189.428 79.7899C189.737 79.5321 190.098 79.2744 190.458 79.0682C190.819 78.862 191.232 78.7074 191.644 78.6043C192.056 78.5012 192.52 78.4496 192.984 78.4496C193.5 78.4496 193.964 78.5012 194.428 78.6558C194.84 78.8105 195.252 79.0167 195.562 79.2744C195.871 79.5321 196.18 79.893 196.438 80.2538C196.696 80.6662 196.902 81.0786 197.057 81.594C197.314 81.027 197.624 80.5631 197.984 80.1507C198.345 79.7383 198.758 79.429 199.222 79.1713C199.685 78.9136 200.149 78.7074 200.665 78.6043C201.18 78.5012 201.696 78.3981 202.211 78.3981C203.088 78.3981 203.861 78.5527 204.531 78.8105C205.201 79.0682 205.768 79.4806 206.284 79.9961C206.747 80.5115 207.108 81.1817 207.366 81.9549C207.624 82.7281 207.727 83.6044 207.727 84.5838V94.8933H204.325V84.5838C204.325 83.4497 204.067 82.5734 203.603 82.0064C203.088 81.4394 202.366 81.1301 201.438 81.1301C201.026 81.1301 200.613 81.1816 200.201 81.3363C199.84 81.4909 199.479 81.6971 199.222 82.0064C198.912 82.3157 198.706 82.6765 198.551 83.0889C198.397 83.5013 198.294 84.0168 198.294 84.5838V94.8933H194.892V84.5838C194.892 83.3982 194.634 82.5219 194.17 81.9549C193.706 81.3878 192.984 81.1301 192.056 81.1301C191.438 81.1301 190.819 81.2847 190.304 81.594C189.737 81.9033 189.273 82.3672 188.809 82.9343V94.8933H185.355Z" fill="#3C454A"/>
<path d="M210.304 80.9242C212.16 79.2231 214.325 78.3468 216.851 78.3468C217.778 78.3468 218.603 78.5015 219.325 78.8107C220.047 79.12 220.665 79.5324 221.181 80.0994C221.696 80.6664 222.057 81.285 222.315 82.0582C222.572 82.8314 222.727 83.6562 222.727 84.584V94.8935H221.181C220.871 94.8935 220.614 94.842 220.407 94.7389C220.201 94.6358 220.098 94.4296 219.995 94.1203L219.686 92.7801C219.273 93.1409 218.861 93.5017 218.449 93.7595C218.036 94.0688 217.624 94.275 217.211 94.4811C216.799 94.6873 216.335 94.842 215.82 94.9451C215.304 95.0482 214.789 95.0997 214.17 95.0997C213.5 95.0997 212.881 94.9966 212.314 94.842C211.747 94.6873 211.232 94.3781 210.82 94.0172C210.407 93.6564 210.098 93.1925 209.84 92.677C209.582 92.11 209.479 91.4914 209.479 90.7697C209.479 90.1512 209.634 89.5326 209.995 88.914C210.304 88.2955 210.871 87.78 211.644 87.3161C212.418 86.8521 213.448 86.4398 214.686 86.1305C215.923 85.8212 217.469 85.6665 219.325 85.615V84.5325C219.325 83.3469 219.067 82.4706 218.552 81.9036C218.036 81.3366 217.315 81.0273 216.335 81.0273C215.665 81.0273 215.15 81.1304 214.686 81.285C214.222 81.4397 213.861 81.6459 213.5 81.8005C213.191 82.0067 212.881 82.1613 212.624 82.316C212.366 82.4706 212.108 82.5737 211.799 82.5737C211.541 82.5737 211.387 82.5222 211.18 82.3675C211.026 82.2644 210.871 82.1098 210.768 81.9036L210.304 80.9242ZM219.376 87.78C218.139 87.8315 217.108 87.9346 216.284 88.0893C215.459 88.2439 214.789 88.4501 214.222 88.6563C213.706 88.914 213.345 89.1718 213.088 89.5326C212.881 89.8419 212.727 90.2027 212.727 90.6151C212.727 90.9759 212.778 91.3368 212.933 91.5945C213.036 91.8522 213.242 92.11 213.448 92.2646C213.655 92.4193 213.912 92.5739 214.222 92.6254C214.531 92.7285 214.84 92.7285 215.201 92.7285C216.077 92.7285 216.851 92.5739 217.521 92.2131C218.139 91.9038 218.809 91.3883 219.376 90.7697V87.78Z" fill="#3C454A"/>
<path d="M230.666 95.1515C229.325 95.1515 228.294 94.7907 227.573 94.0175C226.851 93.2442 226.49 92.2133 226.49 90.8215V81.3883H224.686C224.48 81.3883 224.325 81.3368 224.171 81.1822C224.016 81.0791 223.964 80.8729 223.964 80.6151V79.2234L226.593 78.8625L227.367 74.1717C227.418 74.0171 227.521 73.8624 227.624 73.7593C227.727 73.6562 227.934 73.6047 228.14 73.6047H229.892V78.9141H234.377V81.3883H229.892V90.5638C229.892 91.1308 230.047 91.5947 230.305 91.904C230.614 92.2133 230.975 92.3679 231.439 92.3679C231.696 92.3679 231.954 92.3164 232.109 92.2648C232.315 92.2133 232.47 92.1102 232.624 92.0587C232.779 91.9556 232.882 91.904 232.985 91.8525C233.088 91.8009 233.191 91.7494 233.294 91.7494C233.501 91.7494 233.655 91.8525 233.758 92.0587L234.789 93.7082C234.274 94.1721 233.655 94.5329 232.934 94.7907C232.16 95.0484 231.387 95.1515 230.666 95.1515Z" fill="#3C454A"/>
<path d="M238.397 87.0584C238.449 87.9862 238.604 88.7594 238.81 89.4295C239.068 90.0997 239.377 90.6667 239.789 91.1306C240.202 91.5945 240.666 91.9038 241.233 92.11C241.8 92.3162 242.418 92.4193 243.14 92.4193C243.81 92.4193 244.377 92.3677 244.892 92.2131C245.356 92.0585 245.82 91.9038 246.181 91.6976C246.542 91.4914 246.851 91.3368 247.109 91.1821C247.367 91.0275 247.573 90.976 247.831 90.976C248.088 90.976 248.295 91.0791 248.449 91.2852L249.429 92.5224C249.016 92.9863 248.552 93.3987 248.037 93.708C247.521 94.0172 247.006 94.3265 246.439 94.5327C245.872 94.7389 245.253 94.8936 244.686 94.9966C244.068 95.0997 243.501 95.1513 242.934 95.1513C241.8 95.1513 240.769 94.9451 239.789 94.5843C238.81 94.2234 237.985 93.6564 237.315 92.9348C236.593 92.2131 236.078 91.2852 235.665 90.2027C235.253 89.1203 235.047 87.8831 235.047 86.4398C235.047 85.3057 235.201 84.2748 235.562 83.2954C235.923 82.316 236.439 81.4912 237.109 80.7696C237.779 80.0479 238.604 79.4809 239.531 79.0685C240.459 78.6561 241.542 78.4499 242.779 78.4499C243.758 78.4499 244.686 78.6046 245.563 78.9139C246.387 79.2232 247.16 79.6871 247.779 80.3572C248.398 80.9758 248.862 81.749 249.222 82.6768C249.583 83.6047 249.738 84.6356 249.738 85.7697C249.738 86.2851 249.686 86.646 249.583 86.8522C249.48 87.0068 249.274 87.1099 248.965 87.1099L238.397 87.0584ZM246.542 84.9449C246.542 84.3779 246.439 83.8624 246.284 83.3469C246.13 82.8315 245.872 82.4191 245.563 82.0583C245.253 81.6974 244.841 81.3881 244.377 81.182C243.913 80.9758 243.346 80.8727 242.727 80.8727C241.49 80.8727 240.511 81.2335 239.789 81.9552C239.068 82.6768 238.604 83.6562 238.449 84.9449H246.542Z" fill="#3C454A"/>
<path d="M57.4662 115.976C56.7961 115.512 56.0744 114.997 55.4043 114.481C30.5585 95.4086 25.8161 59.6863 44.8371 34.8405C54.0641 22.7784 67.4149 15.0463 82.4667 13.0875C97.5185 11.0771 112.416 15.0978 124.478 24.3248C125.457 25.098 126.437 25.8712 127.364 26.696L124.375 30.1496C123.498 29.3764 122.622 28.6548 121.694 27.9847C98.8072 10.4585 65.9715 14.8401 48.4454 37.6756C30.9193 60.5111 35.3008 93.3467 58.1879 110.873C58.8064 111.337 59.425 111.801 60.0951 112.213L57.4662 115.976Z" fill="#00CC99"/>
<path d="M89.7349 112.677C84.6833 112.677 79.6316 111.8 74.7862 109.996C72.8789 109.275 70.9717 108.45 69.1675 107.419C63.4973 104.326 58.755 100.151 54.9404 94.8929L58.6519 92.2124C62.054 96.9032 66.3324 100.666 71.3841 103.398C72.982 104.275 74.6831 105.048 76.4357 105.666C88.4978 110.099 101.9 108.295 112.313 100.769C112.725 100.46 113.137 100.151 113.653 99.7383L116.488 103.295C115.921 103.759 115.406 104.12 114.942 104.481C107.467 109.893 98.6526 112.677 89.7349 112.677Z" fill="#4FB8DA"/>
<path d="M50.8682 88.037C42.002 69.3768 47.7754 47.0052 64.5283 34.8916C65.1984 34.3761 65.9716 33.9122 66.8479 33.3452L69.2706 37.2112C68.4459 37.7267 67.7757 38.1906 67.1572 38.603C52.1569 49.428 47.0537 69.4284 54.9404 86.0782L50.8682 88.037Z" fill="#4FB8DA"/>
<path d="M77.9304 96.5942C77.8273 96.5427 77.6727 96.4912 77.5696 96.4396C77.3118 96.3365 77.0025 96.1819 76.7448 96.0788C69.6828 92.522 64.425 86.4394 62.0023 78.9135C59.528 71.3876 60.1466 63.3977 63.7033 56.3357C67.2601 49.2738 73.3427 44.0159 80.8686 41.5932C88.3945 39.1189 96.3844 39.7375 103.446 43.2943C103.962 43.552 104.374 43.8097 104.838 44.0675L105.147 44.2737L102.828 48.1913L102.519 47.9851C102.158 47.7789 101.797 47.5211 101.436 47.3665C95.4565 44.3768 88.7038 43.8613 82.3635 45.9232C76.0231 48.0366 70.8684 52.4697 67.8787 58.3976C64.8889 64.3771 64.3734 71.1298 66.4353 77.4702C68.5488 83.8105 72.9819 88.9652 78.9098 91.955C79.116 92.0581 79.2706 92.1096 79.4768 92.2127C79.6315 92.2643 79.7861 92.3674 79.9407 92.4189L77.9304 96.5942Z" fill="#2078AC"/>
<path d="M89.3223 85.7688C85.147 85.7688 81.1779 84.1709 78.1881 81.2327C75.0953 78.2429 73.3942 74.2738 73.2911 69.9438C73.2911 69.6345 73.2911 69.3768 73.2911 69.0675V68.9128L77.8273 69.119V69.3252C77.8273 69.5314 77.8273 69.686 77.8273 69.8922C77.8788 72.9335 79.116 75.8202 81.3325 77.9336C83.549 80.0471 86.4357 81.1811 89.477 81.1811C92.5183 81.1296 95.4049 79.8924 97.5184 77.6759C99.6318 75.4594 100.817 72.5727 100.766 69.5314C100.766 69.4283 100.766 69.3768 100.766 69.2737C100.766 69.1706 100.766 69.119 100.766 69.0159L105.302 68.7582V68.9128C105.302 69.119 105.354 69.2737 105.354 69.4799C105.405 73.7583 103.807 77.8305 100.817 80.8718C97.8277 83.9647 93.8585 85.6657 89.5285 85.7688C89.477 85.7688 89.4254 85.7688 89.3223 85.7688Z" fill="#D8D5CB"/>
<path d="M89.3224 73.2942C91.7422 73.2942 93.7039 71.3325 93.7039 68.9126C93.7039 66.4928 91.7422 64.5311 89.3224 64.5311C86.9025 64.5311 84.9409 66.4928 84.9409 68.9126C84.9409 71.3325 86.9025 73.2942 89.3224 73.2942Z" fill="#E23248"/>
</g>
<defs>
<clipPath id="clip0_388:3355">
<rect width="300" height="137.637" fill="white"/>
</clipPath>
</defs>
</svg>
