<svg width="317" height="105" viewBox="0 0 317 105" fill="none" xmlns="http://www.w3.org/2000/svg">
<path d="M129.824 99.26L140.444 71.54H136.196L125.612 99.26H129.824ZM153.905 98V85.148C153.905 84.428 153.833 81.008 153.725 78.416H153.761C154.625 80.504 156.137 83.276 156.893 84.572L164.489 98H169.637V72.8H165.353V85.58C165.353 86.876 165.425 90.224 165.533 92.492H165.497C164.561 90.332 163.193 87.812 162.185 85.976L154.697 72.8H149.621V98H153.905ZM188.616 82.556C187.104 80.648 184.692 79.568 181.848 79.568C179.112 79.568 176.952 80.432 175.368 82.088C173.748 83.816 172.956 86.192 172.956 88.964C172.956 91.88 173.712 94.256 175.368 95.948C176.916 97.532 179.076 98.432 181.884 98.432C186.492 98.432 189.444 96.38 190.38 92.24L186.24 91.916C185.844 94.112 184.476 95.228 181.848 95.228C178.86 95.228 177.348 93.536 177.276 90.188H190.668C190.776 87.092 190.056 84.356 188.616 82.556ZM181.848 82.772C183.432 82.772 184.512 83.204 185.304 84.176C185.916 84.932 186.24 85.976 186.312 86.984H177.312C177.384 86.12 177.636 85.148 178.212 84.356C178.932 83.348 180.156 82.772 181.848 82.772ZM207.81 80H203.202L201.006 83.276L199.494 85.688C199.098 85.04 198.558 84.104 197.982 83.24L195.75 80H191.106L197.118 88.568L190.602 98H195.246L197.514 94.544C198.198 93.536 198.954 92.24 199.422 91.484C199.926 92.312 200.646 93.572 201.294 94.58L203.634 98H208.278L201.798 88.568L207.81 80ZM221.895 89.936C221.895 94.22 219.699 95.084 218.007 95.084C216.963 95.084 216.027 95.012 215.163 94.148C214.299 93.248 214.263 91.988 214.263 90.332V80H209.907V90.548C209.907 92.744 210.051 94.976 211.455 96.452C212.751 97.82 214.335 98.432 216.639 98.432C219.123 98.432 220.959 97.352 221.931 95.372V98H226.107V80H221.895V89.936ZM236.886 98.432C240.846 98.432 244.626 97.1 244.626 92.744C244.626 88.496 240.774 87.74 237.39 86.984C235.086 86.48 233.43 86.048 233.43 84.644C233.43 83.24 234.906 82.628 236.49 82.628C238.758 82.628 240.126 83.708 240.234 85.94L244.158 85.292C243.762 81.008 240.414 79.568 236.49 79.568C232.89 79.568 229.398 81.116 229.398 84.968C229.398 88.604 232.458 89.612 235.662 90.44C238.362 91.124 240.594 91.412 240.594 92.996C240.594 94.508 239.334 95.372 236.922 95.372C234.546 95.372 232.926 94.148 232.89 91.808L228.894 92.276C229.038 96.596 232.674 98.432 236.886 98.432Z" fill="#282828"/>
<path d="M131.984 59V46.148C131.984 45.428 131.912 42.008 131.804 39.416H131.84C132.704 41.504 134.216 44.276 134.972 45.572L142.568 59H147.716V33.8H143.432V46.58C143.432 47.876 143.504 51.224 143.612 53.492H143.576C142.64 51.332 141.272 48.812 140.264 46.976L132.776 33.8H127.7V59H131.984ZM167.198 46.508C167.198 42.584 164.57 40.568 159.926 40.568C157.406 40.568 155.426 41.036 154.094 41.972C152.726 42.908 151.934 44.42 151.826 46.544L156.002 47.084C156.038 44.564 157.19 43.7 159.674 43.7C161.15 43.7 162.05 44.024 162.554 44.708C163.058 45.428 163.058 46.292 163.058 47.48L157.694 48.488C154.418 49.1 151.214 50.18 151.214 54.032C151.214 57.668 154.13 59.432 157.442 59.432C160.394 59.432 162.338 58.208 163.274 56.444C163.274 57.56 163.382 58.316 163.526 59H167.81V58.856C167.45 57.992 167.198 56.948 167.198 55.76V46.508ZM163.058 52.088C163.058 54.752 161.402 56.3 158.342 56.3C156.794 56.3 155.57 55.544 155.57 53.996C155.57 52.34 156.722 51.8 158.378 51.404L163.058 50.396V52.088ZM177.396 59.18C178.188 59.18 179.088 59.108 179.772 58.964L179.7 55.256C179.088 55.364 178.476 55.436 178.044 55.436C176.748 55.436 176.172 55.184 176.172 54.104V44.42H179.844V41H176.172V35.996H171.96V41H169.368V44.42H171.96V54.464C171.96 57.848 173.976 59.18 177.396 59.18ZM194.42 50.936C194.42 55.22 192.224 56.084 190.532 56.084C189.488 56.084 188.552 56.012 187.688 55.148C186.824 54.248 186.788 52.988 186.788 51.332V41H182.432V51.548C182.432 53.744 182.576 55.976 183.98 57.452C185.276 58.82 186.86 59.432 189.164 59.432C191.648 59.432 193.484 58.352 194.456 56.372V59H198.632V41H194.42V50.936ZM212.147 40.604C209.231 40.82 207.431 42.368 206.855 44.24V41H202.607V59H206.891V50.756C206.891 45.788 209.015 44.42 212.399 44.42C212.723 44.42 213.047 44.42 213.299 44.456L213.407 40.568C213.119 40.568 212.435 40.568 212.147 40.604ZM229.626 43.556C228.114 41.648 225.702 40.568 222.858 40.568C220.122 40.568 217.962 41.432 216.378 43.088C214.758 44.816 213.966 47.192 213.966 49.964C213.966 52.88 214.722 55.256 216.378 56.948C217.926 58.532 220.086 59.432 222.894 59.432C227.502 59.432 230.454 57.38 231.39 53.24L227.25 52.916C226.854 55.112 225.486 56.228 222.858 56.228C219.87 56.228 218.358 54.536 218.286 51.188H231.678C231.786 48.092 231.066 45.356 229.626 43.556ZM222.858 43.772C224.442 43.772 225.522 44.204 226.314 45.176C226.926 45.932 227.25 46.976 227.322 47.984H218.322C218.394 47.12 218.646 46.148 219.222 45.356C219.942 44.348 221.166 43.772 222.858 43.772ZM238.973 59V54.14H234.293V59H238.973ZM250.436 59V37.616H258.644V33.8H237.764V37.616H245.936V59H250.436ZM271.472 43.556C269.96 41.648 267.548 40.568 264.704 40.568C261.968 40.568 259.808 41.432 258.224 43.088C256.604 44.816 255.812 47.192 255.812 49.964C255.812 52.88 256.568 55.256 258.224 56.948C259.772 58.532 261.932 59.432 264.74 59.432C269.348 59.432 272.3 57.38 273.236 53.24L269.096 52.916C268.7 55.112 267.332 56.228 264.704 56.228C261.716 56.228 260.204 54.536 260.132 51.188H273.524C273.632 48.092 272.912 45.356 271.472 43.556ZM264.704 43.772C266.288 43.772 267.368 44.204 268.16 45.176C268.772 45.932 269.096 46.976 269.168 47.984H260.168C260.24 47.12 260.492 46.148 261.068 45.356C261.788 44.348 263.012 43.772 264.704 43.772ZM284.599 59.432C289.099 59.432 292.159 56.912 292.771 53.276L288.667 52.844C288.091 55.076 286.867 56.192 284.599 56.192C281.035 56.192 280.135 53.888 280.135 50C280.135 47.948 280.387 46.292 281.179 45.212C281.863 44.312 282.943 43.808 284.599 43.808C287.335 43.808 288.199 45.644 288.667 47.66L292.663 46.94C291.943 43.268 289.387 40.568 284.599 40.568C278.839 40.568 275.491 44.456 275.491 50C275.491 55.904 278.839 59.432 284.599 59.432ZM310.129 42.476C308.869 41.108 307.321 40.568 304.981 40.568C302.569 40.568 300.589 41.576 299.617 43.664V33.8H295.369V59H299.653V48.992C299.653 44.708 302.029 43.916 303.577 43.916C304.621 43.916 305.485 43.988 306.313 44.816C307.213 45.68 307.285 46.688 307.285 48.344V59H311.605V48.128C311.605 45.896 311.497 43.952 310.129 42.476Z" fill="#282828"/>
<rect x="1" y="1" width="98" height="98" stroke="#282828" stroke-width="2"/>
<path d="M50 0L50 100" stroke="#282828" stroke-width="2"/>
<path d="M1 1L99 99" stroke="#282828" stroke-width="2"/>
<path d="M9 1L50 42" stroke="#282828" stroke-width="2"/>
<path d="M91 99L50 58" stroke="#282828" stroke-width="2"/>
<path d="M17 1L50 34" stroke="#282828" stroke-width="2"/>
<path d="M83 99L50 66" stroke="#282828" stroke-width="2"/>
<path d="M25 1L50 26" stroke="#282828" stroke-width="2"/>
<path d="M75 99L50 74" stroke="#282828" stroke-width="2"/>
<path d="M33 1L50 18" stroke="#282828" stroke-width="2"/>
<path d="M67 99L50 82" stroke="#282828" stroke-width="2"/>
<path d="M41 1L50 10" stroke="#282828" stroke-width="2"/>
<path d="M59 99L50 90" stroke="#282828" stroke-width="2"/>
</svg>
